<?xml version="1.0" encoding="utf-8"?>
<!-- Generator: Adobe Illustrator 15.0.1, SVG Export Plug-In  -->
<!DOCTYPE svg PUBLIC "-//W3C//DTD SVG 1.1//EN" "http://www.w3.org/Graphics/SVG/1.1/DTD/svg11.dtd" [
	<!ENTITY ns_flows "http://ns.adobe.com/Flows/1.0/">
]>
<svg version="1.1"
	 xmlns="http://www.w3.org/2000/svg" xmlns:xlink="http://www.w3.org/1999/xlink" xmlns:a="http://ns.adobe.com/AdobeSVGViewerExtensions/3.0/"
	 x="0px" y="0px" width="707px" height="620px" preserveAspectRatio="xMidYMid meet" viewBox="-0.159 -0.627 707 620"
	 overflow="visible" enable-background="new -0.159 -0.627 707 620" xml:space="preserve">
<defs>
</defs>
<path d="M34.508,422.341l5.916,32.863c0,0-21.362,9.531-38.452-8.215c8.545-15.775,13.803-26.949,13.803-26.949
	S30.236,415.767,34.508,422.341z"/>
<polygon fill="#FFFFFF" points="25.104,418.203 11.479,457.705 4.213,455.515 21.865,414.789 "/>
<path fill="#FFFFFF" d="M2.856,413.896c3.09-12.772,8.666-30.648,14.77-45.684c12.02,7.146,25.507,6.807,32.49,5.966
	c0.122,1.554,0.167,2.48,0.167,2.48s1.399,28.226,1.251,44.192C44.123,421.06,27.938,420.712,2.856,413.896z"/>
<path fill="#CCCCCC" d="M2.598,414.847l0.258-0.951l0.958,0.232l-0.958-0.232L2.598,414.847l-0.926-0.252l0.227-0.932
	c3.104-12.828,8.688-30.728,14.813-45.823l0,0l0.432-1.063l0.986,0.587c8.41,5.004,17.611,6.265,24.689,6.263l0,0
	c2.786,0,5.239-0.195,7.181-0.428l0,0l1.02-0.122l0.08,1.023c0.123,1.567,0.167,2.503,0.169,2.509l0,0
	c0,0.008,1.262,25.463,1.262,41.742l0,0c0,0.863-0.004,1.699-0.011,2.506l0,0l-0.008,0.951l-0.949,0.027
	c-0.872,0.023-1.863,0.041-2.973,0.041l0,0C40.156,421.876,24.843,420.892,2.598,414.847L2.598,414.847z M48.589,419.904
	c0.705,0,1.36-0.006,1.966-0.018l0,0c0.002-0.502,0.004-1.014,0.004-1.535l0,0c0-8.094-0.316-18.512-0.631-26.898l0,0
	c-0.314-8.387-0.629-14.731-0.629-14.747l0,0c-0.001-0.001-0.025-0.519-0.089-1.435l0,0c-1.818,0.187-3.982,0.327-6.39,0.328l0,0
	c-7.03-0.002-16.148-1.195-24.702-5.969l0,0c-5.769,14.39-11.031,31.219-14.075,43.563l0,0
	C25.619,418.968,40.429,419.904,48.589,419.904L48.589,419.904z"/>
<path fill="#C1272D" d="M51.534,420.851c-0.028,2.984-0.11,5.541-0.265,7.406c-1.643,3.285-27.606,2.629-50.283-5.588
	c0.433-2.486,1.069-5.461,1.87-8.773C27.938,420.712,44.123,421.06,51.534,420.851z"/>
<path fill="#C1272D" d="M0.762,423.287l-0.519-0.189l0.095-0.541c0.437-2.506,1.075-5.492,1.88-8.814l0,0l0.158-0.658l0.653,0.178
	c22.107,6.006,37.258,6.971,45.561,6.971l0,0c1.093,0,2.068-0.018,2.928-0.039l0,0l0.68-0.018l-0.006,0.68
	c-0.028,2.994-0.11,5.562-0.267,7.455l0,0l-0.011,0.127l-0.057,0.113c-0.578,0.998-1.78,1.354-3.528,1.717l0,0
	c-1.757,0.324-4.101,0.492-6.905,0.494l0,0C31.37,430.757,15.412,428.591,0.762,423.287L0.762,423.287z M41.422,429.445
	c2.749,0,5.034-0.168,6.665-0.471l0,0c1.418-0.232,2.316-0.688,2.539-0.92l0,0c0.134-1.678,0.21-3.924,0.244-6.531l0,0
	c-0.694,0.014-1.454,0.025-2.28,0.025l0,0c-8.325,0-23.387-0.961-45.252-6.842l0,0c-0.668,2.803-1.212,5.346-1.608,7.531l0,0
	C16.054,427.345,31.666,429.447,41.422,429.445L41.422,429.445z"/>
<path fill="#C1272D" d="M16.969,369.198c6.746-16.62,14.134-29.766,19.511-28.69c9.631,1.927,12.35,26.658,12.979,34.656
	C42.477,376.005,28.988,376.345,16.969,369.198z"/>
<path fill="#C1272D" d="M16.632,369.762l0.337-0.565l0.608,0.248l-0.608-0.248L16.632,369.762l-0.486-0.288l0.213-0.523
	c3.252-8.014,6.653-15.227,9.933-20.471l0,0c3.308-5.216,6.361-8.609,9.56-8.691l0,0c0.252-0.001,0.506,0.023,0.757,0.074l0,0
	c5.359,1.162,8.362,8.07,10.372,15.527l0,0c1.98,7.494,2.816,15.701,3.134,19.722l0,0l0.05,0.63l-0.627,0.074
	c-1.995,0.24-4.513,0.439-7.376,0.441l0,0C34.896,376.255,25.397,374.972,16.632,369.762L16.632,369.762z M42.161,374.941
	c2.509,0,4.75-0.156,6.591-0.357l0,0c-0.348-4.164-1.196-11.872-3.043-18.856l0,0c-1.914-7.39-5.086-13.811-9.361-14.575l0,0
	c-0.161-0.033-0.326-0.049-0.496-0.049l0,0c-2.119-0.084-5.261,2.908-8.445,8.073l0,0c-3.14,5.021-6.446,11.981-9.614,19.741l0,0
	C26.139,373.725,35.182,374.943,42.161,374.941L42.161,374.941z"/>
<ellipse cx="128.83" cy="605.398" rx="128.83" ry="13.475"/>
<path fill="#C1272D" d="M162.358,506.332c12.729,16.91,21.102,38.318,17.741,64.557c11.174,2.631,29.907,11.504,32.865,18.734
	c0.986,6.244-2.629,8.545-2.629,8.545s-41.738,0.656-45.682,0.328c-2.752-2.752,7.25-45.127-18.273-77.523
	C152.215,511.691,157.965,507.833,162.358,506.332z"/>
<path fill="#C1272D" d="M164.598,599.15l-0.24-0.02l-0.171-0.172c-0.411-0.445-0.509-0.971-0.612-1.66l0,0
	c-0.091-0.691-0.121-1.555-0.122-2.596l0,0c0.001-3.111,0.279-7.811,0.279-13.578l0,0c0.001-15.879-2.118-39.76-17.868-59.748l0,0
	l-0.288-0.365l0.248-0.391c5.891-9.373,11.764-13.355,16.322-14.912l0,0l0.45-0.154l0.288,0.381
	c10.881,14.451,18.618,32.217,18.617,53.447l0,0c0,3.57-0.219,7.238-0.677,11.006l0,0c5.591,1.389,12.812,4.199,19.099,7.562l0,0
	c6.498,3.502,11.998,7.484,13.649,11.422l0,0l0.029,0.072l0.011,0.074c0.123,0.781,0.177,1.508,0.177,2.182l0,0
	c0.005,4.971-3.002,6.969-3.103,7.021l0,0l-0.157,0.098l-0.186,0.004c-0.001,0-26.712,0.42-39.427,0.42l0,0
	C167.73,599.242,165.449,599.218,164.598,599.15L164.598,599.15z M170.917,597.929c6.346,0,16.199-0.104,24.465-0.211l0,0
	c7.417-0.094,13.545-0.188,14.733-0.207l0,0c0.057-0.045,0.129-0.105,0.213-0.182l0,0c0.229-0.209,0.545-0.541,0.861-1.01l0,0
	c0.633-0.938,1.285-2.41,1.287-4.619l0,0c0-0.584-0.046-1.219-0.152-1.908l0,0c-1.359-3.279-6.672-7.311-13.022-10.684l0,0
	c-6.396-3.424-13.844-6.285-19.354-7.58l0,0l-0.576-0.137l0.074-0.588c0.502-3.918,0.74-7.725,0.74-11.422l0,0
	c-0.001-20.717-7.466-38.055-18.062-52.27l0,0c-4.111,1.533-9.449,5.23-14.939,13.818l0,0
	c15.774,20.285,17.862,44.301,17.864,60.193l0,0c0,5.805-0.28,10.539-0.278,13.578l0,0c-0.006,1.514,0.083,2.629,0.248,3.107l0,0
	c0.005,0.018,0.011,0.035,0.017,0.051l0,0C165.997,597.908,168.13,597.929,170.917,597.929L170.917,597.929z"/>
<path fill="#FFFFFF" d="M92.679,456.191c0,0,43.827,15.791,69.679,50.141c-4.393,1.502-10.143,5.359-15.979,14.641
	c-8-10.156-19.483-19.334-35.954-26C98.923,482.484,83.805,457.835,92.679,456.191z"/>
<path fill="#CCCCCC" d="M145.605,521.582c-7.896-10.02-19.223-19.084-35.549-25.697l0,0l-0.207-0.084l-0.149-0.16
	c-4.596-4.994-9.726-11.854-13.733-18.473l0,0c-3.997-6.645-6.911-12.922-6.947-17.213l0,0c0.001-1.15,0.22-2.209,0.805-3.076l0,0
	c0.582-0.873,1.541-1.459,2.674-1.656l0,0l0.263-0.049l0.25,0.09c0.076,0.043,44.032,15.832,70.133,50.475l0,0l0.818,1.086
	l-1.287,0.439c-4.146,1.422-9.71,5.094-15.463,14.232l0,0l-0.745,1.184L145.605,521.582L145.605,521.582z M146.292,519.287
	c5.145-7.801,10.259-11.631,14.483-13.408l0,0c-19.213-24.904-47.969-39.855-61.248-45.783l0,0
	c-3.668-1.641-6.136-2.586-6.917-2.879l0,0c-0.576,0.154-0.898,0.406-1.153,0.768l0,0c-0.284,0.414-0.467,1.066-0.466,1.971l0,0
	c-0.036,3.422,2.718,9.723,6.661,16.193l0,0c3.889,6.424,8.9,13.137,13.35,17.994l0,0
	C126.929,500.623,138.265,509.466,146.292,519.287L146.292,519.287z"/>
<path fill="#FFFFFF" d="M78.565,543.058c32.222-30.564-18.422-75.035-18.422-75.035c1.972-3.287,24.648-11.832,37.794,0
	c42.463,42.277,26.349,72.205,2.259,90.92C96.166,554.144,88.643,546.662,78.565,543.058z"/>
<path fill="#CCCCCC" d="M99.44,559.576c-3.963-4.727-11.391-12.088-21.207-15.59l0,0l0.332-0.928l0.678,0.715l-0.678-0.715
	l-0.332,0.928l-1.511-0.541l1.164-1.104c7.594-7.219,10.408-15.086,10.419-23.025l0,0c0.051-18.719-16.158-37.887-24.313-46.205l0,0
	c-2.712-2.779-4.495-4.344-4.5-4.348l0,0l-0.619-0.543l0.423-0.703c0.515-0.814,1.396-1.438,2.646-2.158l0,0
	c1.249-0.703,2.859-1.416,4.742-2.064l0,0c3.763-1.295,8.608-2.326,13.689-2.328l0,0c6.278,0,12.959,1.586,18.259,6.357l0,0
	c19.21,19.121,26.639,35.881,26.642,50.359l0,0c-0.009,17.719-11.111,31.656-24.473,42.037l0,0l-0.751,0.584L99.44,559.576
	L99.44,559.576z M100.331,557.583c12.796-10.143,22.978-23.393,22.969-39.9l0,0c0.003-13.768-7.062-30.047-26.024-48.928l0,0
	c-4.788-4.312-10.939-5.814-16.903-5.816l0,0c-7.213-0.008-14.11,2.242-17.463,4.137l0,0c-0.566,0.311-1.029,0.629-1.36,0.893l0,0
	c2.058,1.9,7.997,7.615,13.952,15.467l0,0c7.34,9.697,14.758,22.65,14.775,35.881l0,0c0.01,8.012-2.786,16.105-9.923,23.367l0,0
	C89.465,546.355,96.321,552.955,100.331,557.583L100.331,557.583z"/>
<path fill="#C1272D" d="M75.26,545.912c1.188-0.936,2.287-1.889,3.305-2.854c10.078,3.604,17.601,11.086,21.631,15.885
	c-18.419,14.312-41.5,22.068-46.626,23.777c12.817,5.258,16.432,17.418,15.118,23.334c-6.245,0.986-26.621,1.643-49.626-2.957
	C21.691,586.335,36.48,576.476,75.26,545.912z"/>
<path fill="#C1272D" d="M18.933,603.742l-0.619-0.125l0.098-0.623c1.339-8.564,5.826-15.381,14.741-23.791l0,0
	c8.921-8.426,22.314-18.527,41.701-33.809l0,0c1.172-0.922,2.255-1.861,3.259-2.814l0,0l0.294-0.277l0.379,0.137
	c10.253,3.67,17.839,11.234,21.913,16.082l0,0l0.44,0.521l-0.539,0.42c-17.029,13.227-37.944,20.855-45.224,23.342l0,0
	c10.3,4.953,14.221,14.42,14.222,20.732l0,0c0,0.963-0.092,1.855-0.269,2.658l0,0l-0.097,0.438l-0.442,0.07
	c-2.468,0.389-6.99,0.719-12.965,0.721l0,0C46.304,607.421,33.121,606.578,18.933,603.742L18.933,603.742z M55.824,606.107
	c5.559,0,9.858-0.293,12.306-0.635l0,0c0.099-0.586,0.152-1.236,0.152-1.936l0,0c0.001-6.105-4.033-15.734-14.962-20.209l0,0
	l-1.637-0.672l1.677-0.561c5.056-1.68,27.675-9.295,45.888-23.252l0,0c-4.028-4.693-11.166-11.574-20.529-15.029l0,0
	c-0.949,0.883-1.964,1.756-3.052,2.613l0,0c-19.395,15.283-32.786,25.393-41.611,33.73l0,0
	c-8.608,8.137-12.837,14.512-14.241,22.416l0,0C33.662,605.292,46.52,606.107,55.824,606.107L55.824,606.107z"/>
<ellipse fill="#CCCCCC" cx="85.941" cy="287.103" rx="18.569" ry="17.254"/>
<path fill="#FFFFFF" d="M66.386,287.102c0.012-10.131,8.81-18.222,19.555-18.24l0,0c10.746,0.019,19.543,8.109,19.554,18.24l0,0
	c-0.011,10.132-8.809,18.222-19.554,18.239l0,0C75.196,305.324,66.398,297.234,66.386,287.102L66.386,287.102z M85.941,303.37
	c9.765-0.005,17.564-7.341,17.583-16.268l0,0c-0.019-8.927-7.818-16.263-17.583-16.268l0,0c-9.765,0.005-17.565,7.341-17.583,16.268
	l0,0C68.375,296.029,76.176,303.365,85.941,303.37L85.941,303.37z"/>
<path fill="#F5E0CD" d="M56.649,352.302c0.625-5.262-4.011-11.149-5.031-16.73c-0.697-6.568,0.573-13.807,2.51-19.734
	c4.207-10.871,13.681-20.131,23.505-26.105c13.1-7.639,35.418-12.703,49.269-4.899c13.189,7.151,22.855,29.44,23.271,43.899
	c0.067,11.173,0.095,15.773,8.365,24.598l0,0l0,0c-2.625,0.674-5.579,1.348-8.537,1.366c0.056,9.202-14.014,19.476-20.888,24.118
	c-15.056,10.279-34.179,0.207-47.058-9.904"/>
<path fill="#FFFFFF" d="M150.849,319.937c0.041,0.322-37.756,1.299-46.109,6.169c2.673,15.26,6.348,58.765,7.017,58.44
	c0.667-0.324-55.13-9.415-60.477-47.077c-5.346-37.661,22.052-56.817,47.78-59.739C124.787,274.809,146.505,285.198,150.849,319.937
	z"/>
<path fill="#CCCCCC" d="M111.238,385.394c-0.081-0.021-0.195-0.051-0.333-0.086l0,0c-0.394-0.098-0.993-0.238-1.755-0.42l0,0
	c-1.525-0.367-3.717-0.912-6.363-1.672l0,0c-5.292-1.52-12.405-3.896-19.705-7.447l0,0c-14.57-7.088-30.034-18.939-32.778-38.162
	l0,0c-0.464-3.262-0.686-6.393-0.686-9.391l0,0c-0.008-16.046,6.367-28.307,15.727-36.807l0,0
	c9.359-8.507,21.658-13.3,33.604-14.659l0,0c2.739-0.311,5.437-0.474,8.079-0.474l0,0c11.231-0.004,21.482,2.949,29.404,9.926l0,0
	c7.923,6.975,13.434,17.908,15.395,33.612l0,0l-0.978,0.123v-0.986v0.986l0.978-0.123l0.138,1.109h-0.963
	c-0.005,0.002-0.011,0.002-0.017,0.004l0,0c-0.095,0.02-0.171,0.028-0.265,0.039l0,0c-0.187,0.021-0.429,0.041-0.741,0.064l0,0
	c-0.62,0.046-1.506,0.098-2.615,0.162l0,0c-2.213,0.129-5.306,0.301-8.839,0.539l0,0c-7.062,0.473-15.89,1.213-22.899,2.375l0,0
	c-4.205,0.688-7.786,1.57-9.795,2.535l0,0c1.913,11.395,4.276,36.139,5.714,49.252l0,0c0.452,4.168,0.842,7.26,1.027,8.071l0,0
	c0.075,0.116,0.144,0.292,0.176,0.573l0,0c0,0.518-0.405,0.828-0.495,0.858l0,0l-0.144,0.083l-0.16,0.033c0,0,0,0-0.016,0.002l0,0
	c-0.032,0.008-0.101,0.018-0.186,0.018l0,0C111.533,385.531,111.362,385.466,111.238,385.394L111.238,385.394z M99.17,278.709
	c-11.583,1.314-23.513,5.981-32.498,14.158l0,0c-8.986,8.184-15.073,19.83-15.082,35.35l0,0c0,2.901,0.214,5.938,0.666,9.114l0,0
	c2.471,17.511,16.21,28.782,30.02,35.833l0,0c12.037,6.142,23.933,8.997,28.16,10.004l0,0c-0.017-0.117-0.035-0.24-0.053-0.369l0,0
	c-0.174-1.23-0.385-2.984-0.625-5.135l0,0c-0.483-4.299-1.088-10.18-1.753-16.533l0,0c-1.333-12.703-2.916-27.32-4.236-34.855l0,0
	l-0.119-0.676l0.593-0.346c3.362-1.927,10.216-3.117,17.819-4.037l0,0c7.579-0.9,15.805-1.439,21.506-1.777l0,0
	c2.777-0.164,5.001-0.285,6.172-0.367l0,0c-2.028-14.842-7.292-24.94-14.611-31.389l0,0c-7.483-6.589-17.2-9.431-28.102-9.435l0,0
	C104.467,278.248,101.842,278.407,99.17,278.709L99.17,278.709z"/>
<ellipse cx="137.868" cy="343.136" rx="2.136" ry="2.959"/>
<path fill="none" d="M142.304,329.662c-4.93-3.943-13.803-5.586-16.432,0.986"/>
<path d="M142.791,329.287c-5.129-3.893-14.251-5.883-17.529,1.28c-0.308,0.673,0.975,0.696,1.219,0.163
	c2.921-6.385,10.94-4.027,15.336-0.692C142.285,330.393,143.384,329.737,142.791,329.287L142.791,329.287z"/>
<path opacity="0.4" fill="#FFFF00" d="M151.178,316.517c0,0,15.775,32.205-19.062,40.094c-17.747,0.344-48.311-16.121-49.625-16.121
	C80.899,340.49,92.679,312.244,151.178,316.517z"/>
<ellipse fill="#CCCCCC" cx="91.2" cy="339.029" rx="19.16" ry="20.541"/>
<path fill="#FFFFFF" d="M71.053,339.029c0.02-11.838,8.965-21.518,20.147-21.526l0,0c11.18,0.009,20.125,9.688,20.146,21.526l0,0
	c-0.02,11.838-8.965,21.516-20.146,21.525l0,0C80.019,360.544,71.073,350.867,71.053,339.029L71.053,339.029z M91.2,358.583
	c9.982-0.02,18.168-8.703,18.172-19.555l0,0c-0.004-10.852-8.19-19.535-18.172-19.555l0,0c-9.984,0.02-18.17,8.703-18.174,19.555
	l0,0C73.03,349.88,81.216,358.564,91.2,358.583L91.2,358.583z"/>
<circle fill="#FFFFFF" cx="88.265" cy="339.892" r="8.458"/>
<path fill="#FBB03B" d="M215.921,344.945c0,0-7.559-10.188-17.418-7.23c2.958,8.709,6.08,13.311,6.08,13.311L215.921,344.945z"/>
<path fill="#FFFFFF" d="M204.039,351.393c-0.028-0.04-3.179-4.692-6.159-13.468l0,0l-0.219-0.645l0.652-0.197
	c1.312-0.395,2.59-0.566,3.817-0.566l0,0c8.469,0.049,14.265,8.002,14.318,8.035l0,0l-0.528,0.392l0.528-0.392l0.455,0.611
	l-12.532,6.719L204.039,351.393L204.039,351.393z M204.613,349.832c0.073,0.123,0.139,0.231,0.197,0.326l0,0l10.101-5.417
	c-0.138-0.162-0.305-0.353-0.5-0.566l0,0c-0.648-0.71-1.596-1.657-2.784-2.601l0,0c-2.38-1.893-5.704-3.746-9.497-3.742l0,0
	c-0.898,0-1.824,0.103-2.777,0.333l0,0C201.483,344.269,203.65,348.222,204.613,349.832L204.613,349.832z"/>
<path fill="#FBB03B" d="M285.534,371.999c-0.002-0.001-0.004-0.001-0.006-0.002l0,0c-0.021-0.005-0.052-0.013-0.094-0.024l0,0
	c-0.084-0.022-0.208-0.053-0.364-0.092l0,0c-0.313-0.08-0.762-0.193-1.324-0.333l0,0c-1.124-0.28-2.704-0.672-4.587-1.139l0,0
	c-3.765-0.931-8.741-2.158-13.7-3.38l0,0c-9.922-2.445-19.761-4.864-19.78-4.868l0,0l0.626-2.554
	c0.002,0.001,34.656,8.519,39.41,9.724l0,0c0.345,0.09,0.447,0.11,0.623,0.165l0,0v0.001l-0.832,2.493l0.274-0.822l-0.237,0.835
	C285.543,372.001,285.542,372.001,285.534,371.999L285.534,371.999z"/>
<path fill="#C1272D" d="M248.457,388.819c0.913,0.373-0.986,8.874-0.986,8.874h-10.517l-1.972,6.244c0,0-37.137,6.244-38.123,6.9
	c-0.986,0.658-12.16-3.943-12.16-3.943l0.329-8.216c0,0-16.617-6.938-37.799-13.925c3.893-7.993,4.946-14.896,5.207-18.717
	C188.257,371.556,225.092,379.267,248.457,388.819z"/>
<path fill="#C1272D" d="M189.599,409.513c-2.708-1.006-5.146-2.01-5.15-2.012l0,0l-0.426-0.176l0.329-8.216
	c-1.213-0.5-4.982-2.04-10.517-4.161l0,0c-6.794-2.605-16.235-6.082-26.813-9.571l0,0l-0.715-0.237l0.33-0.674
	c3.848-7.902,4.886-14.719,5.142-18.475l0,0l0.05-0.713l0.707,0.107c35.848,5.527,72.702,13.233,96.169,22.823l0,0l-0.249,0.61
	l-0.094,0.229l0.094-0.229l0.249-0.61c0.447,0.216,0.516,0.549,0.583,0.784l0,0c0.058,0.256,0.073,0.527,0.074,0.836l0,0
	c-0.008,2.502-1.247,7.977-1.25,8.006l0,0l-0.114,0.514h-10.562l-1.949,6.169l-0.396,0.066c-0.011,0.001-5.059,0.851-11.492,1.956
	l0,0c-6.432,1.107-14.24,2.469-19.73,3.491l0,0c-3.617,0.667-6.336,1.231-6.692,1.38l0,0c-0.255,0.143-0.447,0.141-0.645,0.148l0,0
	C195.2,411.533,192.345,410.519,189.599,409.513L189.599,409.513z M197.173,411.414L197.173,411.414
	C197.172,411.414,197.172,411.414,197.173,411.414L197.173,411.414z M190.057,408.281c2.647,1,5.708,1.99,6.475,1.965l0,0
	c0.021,0,0.038-0.002,0.049-0.002l0,0c0.233-0.12,0.383-0.137,0.709-0.23l0,0c0.34-0.084,0.794-0.186,1.355-0.304l0,0
	c1.118-0.235,2.653-0.534,4.466-0.874l0,0c3.624-0.678,8.36-1.52,13.065-2.343l0,0c8.265-1.443,16.433-2.823,18.3-3.138l0,0
	l1.995-6.32h10.469c0.116-0.546,0.309-1.474,0.501-2.518l0,0c0.307-1.654,0.608-3.621,0.605-4.688l0,0
	c0.002-0.203-0.012-0.375-0.028-0.479l0,0c-23.12-9.415-59.507-17.065-94.982-22.556l0,0c-0.334,3.875-1.44,10.24-4.892,17.57l0,0
	c20.867,6.912,37.128,13.702,37.138,13.707l0,0l0.421,0.176l-0.329,8.211C186.184,406.788,188.047,407.535,190.057,408.281
	L190.057,408.281z"/>
<path fill="#FFFFFF" d="M51.598,356.283c13.809-0.545,56.548,2.93,100.838,9.754c-0.261,3.82-1.314,10.724-5.207,18.717
	c-26.947-8.886-61.285-17.848-78.213-12.695c-3.287,3.286-14.132,41.41,15.118,75.26c-22.02,7.887-29.907,9.859-29.907,9.859
	S28.921,401.964,51.598,356.283z"/>
<path fill="#CCCCCC" d="M53.331,457.587c-0.027-0.07-12.151-26.492-12.16-58.082l0,0c0.001-14.153,2.441-29.356,9.544-43.662l0,0
	l0.259-0.522l0.585-0.023c0.958-0.038,2.046-0.058,3.257-0.058l0,0c16.531,0.004,56.447,3.457,97.77,9.822l0,0l0.896,0.138
	l-0.062,0.903c-0.267,3.92-1.344,10.949-5.305,19.082l0,0l-0.377,0.775l-0.818-0.27c-21.418-7.07-47.557-14.17-65.629-14.16l0,0
	c-4.483-0.001-8.461,0.437-11.717,1.389l0,0c-0.239,0.326-0.638,1.039-1.023,2.008l0,0c-0.489,1.208-1.017,2.842-1.498,4.824l0,0
	c-0.965,3.967-1.748,9.332-1.748,15.59l0,0c0.004,14.381,4.115,33.436,19.574,51.332l0,0l0.94,1.086l-1.354,0.486
	c-22.042,7.895-29.955,9.877-30,9.887l0,0l-0.794,0.199L53.331,457.587L53.331,457.587z M43.144,399.505
	c-0.003,23.316,6.748,43.908,10.117,52.715l0,0c0.673,1.758,1.207,3.039,1.528,3.785l0,0c0.206-0.057,0.453-0.125,0.745-0.209l0,0
	c1.074-0.305,2.741-0.795,5.095-1.531l0,0c4.515-1.414,11.564-3.734,21.83-7.396l0,0c-15.051-17.98-19.13-37.075-19.125-51.527l0,0
	c0.004-9.639,1.793-17.203,3.39-21.154l0,0c0.549-1.328,1.021-2.23,1.596-2.826l0,0l0.173-0.175l0.237-0.072
	c3.575-1.087,7.824-1.554,12.562-1.555l0,0c18.309,0.011,44.062,6.988,65.423,13.987l0,0c3.245-6.932,4.325-12.955,4.666-16.674l0,0
	c-40.9-6.266-80.366-9.662-96.563-9.66l0,0c-0.947,0-1.814,0.012-2.595,0.035l0,0C45.488,371.058,43.144,385.751,43.144,399.505
	L43.144,399.505z"/>
<path fill="#C1272D" d="M233.997,409.852c1.034-0.579-7.559-10.188-7.559-10.188s-23.663,0.329-28.264,6.244
	c0,4.93,1.314,11.174,1.314,11.174S225.781,414.453,233.997,409.852z"/>
<path fill="#FFFFFF" d="M198.845,417.216c-0.003-0.021-1.325-6.272-1.329-11.308l0,0v-0.228l0.14-0.178
	c2.655-3.293,9.747-4.72,16.293-5.588l0,0c6.533-0.826,12.465-0.909,12.479-0.909l0,0l0.3-0.004l0.199,0.224
	c0.018,0.026,5.839,6.511,7.4,9.273l0,0c0.222,0.422,0.392,0.721,0.413,1.17l0,0c0.015,0.203-0.102,0.584-0.419,0.755l0,0
	l-0.324-0.572l0.321,0.573c-4.296,2.391-12.916,4.17-20.551,5.416l0,0c-7.622,1.236-14.205,1.895-14.212,1.895l0,0l-0.587,0.059
	L198.845,417.216L198.845,417.216z M199.482,413.246c0.205,1.365,0.411,2.482,0.534,3.121l0,0c1.773-0.191,7.306-0.812,13.541-1.822
	l0,0c7.358-1.186,15.727-2.957,19.786-5.086l0,0c-0.041-0.088-0.095-0.196-0.163-0.316l0,0c-0.19-0.338-0.478-0.778-0.828-1.27l0,0
	c-0.701-0.984-1.649-2.182-2.599-3.334l0,0c-1.534-1.861-3.067-3.605-3.604-4.211l0,0c-1.272,0.029-6.437,0.183-12.034,0.893l0,0
	c-6.292,0.758-13.16,2.394-15.282,4.916l0,0C198.852,408.49,199.165,411.155,199.482,413.246L199.482,413.246z"/>
<path fill="none" d="M225.124,412.482c-1.808-2.959-2.958-6.245-4.437-9.203c-0.329-0.821-1.479-3.779-1.479-2.793"/>
<path fill="#FFFFFF" d="M225.758,412.311c-1.733-2.946-2.943-6.136-4.437-9.202c-0.364-0.747-0.722-2.95-1.686-3.129
	c-0.262-0.049-0.967,0.068-1.027,0.41c-0.011,0.062-0.022,0.123-0.033,0.184c-0.079,0.445,1.195,0.221,1.265-0.176
	c0.011-0.062,0.021-0.123,0.032-0.184c-0.342,0.137-0.685,0.273-1.027,0.41c0.402,0.074,1.731,3.916,1.923,4.328
	c1.208,2.592,2.266,5.228,3.72,7.699C224.722,413.048,225.932,412.607,225.758,412.311L225.758,412.311z"/>
<path fill="none" d="M216.414,414.783c-1.314-4.273-3.122-8.875-3.287-13.476"/>
<path fill="#FFFFFF" d="M217.049,414.611c-1.39-4.436-3.003-8.793-3.286-13.474c-0.013-0.214-1.291,0.001-1.27,0.341
	c0.283,4.68,1.896,9.038,3.287,13.475C215.868,415.234,217.129,414.869,217.049,414.611L217.049,414.611z"/>
<path fill="none" d="M208.855,416.097c-0.329-2.629-3.451-12.325-2.301-13.969"/>
<path fill="#FFFFFF" d="M209.49,415.927c-0.335-2.268-1.026-4.493-1.557-6.72c-0.448-1.878-1.726-5.327-0.754-7.196
	c0.074-0.143-1.088-0.074-1.249,0.236c-0.86,1.653,0.082,4.36,0.443,6.034c0.574,2.662,1.448,5.288,1.847,7.985
	C208.253,416.488,209.534,416.222,209.49,415.927L209.49,415.927z"/>
<path fill="#FBB03B" d="M258.481,344.945c0,0-10.446,37.465-10.96,37.794c-0.513,0.329-53.772-11.503-57.196-12.981
	C186.899,368.279,189.468,328.841,258.481,344.945z"/>
<path fill="#FFFFFF" d="M241.643,382.315c-3.226-0.669-7.556-1.601-12.345-2.653l0,0c-9.576-2.104-20.985-4.69-29.042-6.621l0,0
	c-5.395-1.297-9.197-2.26-10.192-2.68l0,0c-0.59-0.283-0.837-0.812-1.041-1.436l0,0c-0.192-0.637-0.292-1.432-0.293-2.367l0,0
	c0.004-3.944,1.828-10.465,7.789-16.033l0,0c5.96-5.564,16.026-10.099,32.37-10.096l0,0c8.223,0,18.037,1.144,29.741,3.875l0,0
	l-0.149,0.64l0.149-0.64l0.668,0.156l-0.184,0.66c-0.001,0.005-7.747,27.789-10.234,35.734l0,0c-0.369,1.16-0.577,1.822-0.754,2.162
	l0,0c-0.045,0.057-0.029,0.109-0.252,0.276l0,0c-0.227,0.112-0.297,0.108-0.347,0.104l0,0c-0.019-0.001-0.035-0.002-0.056,0.004l0,0
	C246.9,383.387,244.906,382.986,241.643,382.315L241.643,382.315z M198.625,371.294c4.343,1.056,9.978,2.367,15.874,3.709l0,0
	c11.788,2.685,24.623,5.488,30.233,6.6l0,0c1.068,0.214,1.92,0.365,2.376,0.438l0,0c0-0.001,0.001-0.002,0.001-0.002l0,0
	c0.1-0.279,0.237-0.693,0.404-1.217l0,0c0.332-1.049,0.782-2.537,1.306-4.314l0,0c1.05-3.554,2.405-8.267,3.743-12.969l0,0
	c2.255-7.931,4.461-15.819,5.101-18.109l0,0c-11.33-2.602-20.829-3.686-28.774-3.686l0,0c-32.196,0.039-38.804,17.664-38.844,24.814
	l0,0c-0.027,1.459,0.357,2.486,0.531,2.586l0,0c0.008,0.011,0.009,0.01,0.009,0.01l0,0
	C191.183,369.419,194.303,370.248,198.625,371.294L198.625,371.294z"/>
<circle fill="#FBB03B" cx="289.538" cy="372.222" r="6.08"/>
<path fill="#FFFFFF" d="M282.801,372.222c0-3.721,3.015-6.737,6.737-6.737l0,0c3.72,0,6.737,3.017,6.737,6.737l0,0
	c0,3.721-3.017,6.736-6.737,6.736l0,0C285.816,378.958,282.801,375.943,282.801,372.222L282.801,372.222z M289.538,377.645
	c2.994-0.005,5.417-2.429,5.422-5.423l0,0c-0.005-2.996-2.429-5.418-5.422-5.422l0,0c-2.995,0.004-5.418,2.426-5.423,5.422l0,0
	C284.12,375.216,286.543,377.64,289.538,377.645L289.538,377.645z"/>
<path fill="#FBB03B" d="M272.583,378.529c-0.625-0.116-1.073-0.523-1.333-0.903l0,0c-0.27-0.39-0.426-0.8-0.551-1.245l0,0
	c-0.24-0.889-0.337-1.951-0.34-3.192l0,0c0.001-1.698,0.198-3.718,0.598-5.866l0,0c0.742-3.867,1.831-7.021,3.162-8.73l0,0
	c0.464-0.547,1.011-1.129,2.039-1.172l0,0c0.127,0,0.246,0.013,0.351,0.031l0,0c0.625,0.115,1.074,0.523,1.333,0.902l0,0
	c0.269,0.391,0.426,0.799,0.549,1.246l0,0c0.242,0.889,0.338,1.951,0.341,3.193l0,0c-0.001,1.698-0.198,3.715-0.597,5.865l0,0
	c-0.744,3.867-1.833,7.021-3.164,8.73l0,0c-0.465,0.546-1.01,1.127-2.039,1.174l0,0C272.82,378.562,272.705,378.55,272.583,378.529
	L272.583,378.529z M272.99,373.188c-0.021,0.892,0.074,1.669,0.182,2.2l0,0c0.197-0.312,0.422-0.73,0.642-1.229l0,0
	c0.647-1.456,1.293-3.589,1.738-5.982l0,0c0.375-2.006,0.552-3.889,0.552-5.385l0,0c0.021-0.893-0.075-1.672-0.183-2.202l0,0
	c-0.198,0.312-0.422,0.73-0.642,1.229l0,0c-0.647,1.455-1.292,3.588-1.737,5.982l0,0C273.167,369.809,272.99,371.691,272.99,373.188
	L272.99,373.188z"/>
<path fill="#FBB03B" d="M263.474,379.417c-0.694-0.129-1.204-0.584-1.517-1.039l0,0c-0.322-0.466-0.523-0.98-0.684-1.557l0,0
	c-0.313-1.151-0.446-2.576-0.448-4.25l0,0c0-2.291,0.266-5.034,0.81-7.955l0,0c1-5.25,2.513-9.558,4.239-11.756l0,0
	c0.595-0.711,1.268-1.383,2.414-1.428l0,0c0.14,0,0.271,0.014,0.391,0.037l0,0c0.694,0.129,1.205,0.582,1.518,1.038l0,0
	c0.322,0.465,0.523,0.979,0.684,1.557l0,0c0.313,1.149,0.446,2.575,0.449,4.25l0,0c-0.001,2.292-0.266,5.034-0.81,7.956l0,0
	c-1,5.248-2.514,9.556-4.239,11.756l0,0c-0.596,0.711-1.27,1.383-2.414,1.426l0,0C263.737,379.453,263.608,379.443,263.474,379.417
	L263.474,379.417z M264.146,376.915L264.146,376.915C264.146,376.916,264.146,376.916,264.146,376.915L264.146,376.915z
	 M263.455,372.572c-0.001,1.248,0.089,2.312,0.245,3.088l0,0c0.078,0.434,0.196,0.771,0.292,0.988l0,0
	c0.07-0.07,0.151-0.16,0.237-0.268l0,0c0.375-0.463,0.838-1.258,1.288-2.277l0,0c0.911-2.047,1.801-4.998,2.418-8.312l0,0
	c0.518-2.779,0.766-5.387,0.764-7.476l0,0c0.001-1.248-0.09-2.313-0.246-3.089l0,0c-0.078-0.434-0.196-0.771-0.291-0.986l0,0
	c-0.071,0.069-0.152,0.158-0.238,0.266l0,0c-0.375,0.464-0.838,1.258-1.288,2.278l0,0c-0.91,2.046-1.802,4.998-2.417,8.315l0,0
	C263.701,367.876,263.454,370.482,263.455,372.572L263.455,372.572z M268.009,353.972L268.009,353.972L268.009,353.972
	L268.009,353.972L268.009,353.972L268.009,353.972z"/>
<path fill="#CCCCCC" d="M75.722,270.157c-0.11,0.036-0.228,0.075-0.352,0.117l0,0c-0.901,0.306-2.127,0.758-3.401,1.334l0,0
	c-2.559,1.131-5.275,2.885-6.002,4.569l0,0l-1.875-0.523c0.334-2.766,2.493-7.687,7.066-10.54l0,0
	c-1.673,0.258-3.796,0.753-5.673,1.256l0,0c-2.75,0.73-5.038,1.458-5.043,1.46l0,0l-0.916-1.711
	c1.588-1.269,3.039-2.717,4.084-3.844l0,0c0.519-0.559,0.936-1.035,1.225-1.373l0,0c-0.467-0.709-1.341-2.024-2.588-3.85l0,0
	c-1.946-2.848-4.795-6.927-8.404-11.846l0,0c-7.215-9.84-17.466-23.043-29.597-36.485l0,0l1.464-1.322
	c24.378,27.015,41.159,53.012,41.176,53.039l0,0l0.386,0.596l-0.444,0.555c-0.017,0.019-1.134,1.418-2.841,3.141l0,0
	c2.972-0.821,6.837-1.756,9.112-1.772l0,0c0.53,0.004,0.995,0.039,1.463,0.219l0,0c0.451,0.133,1.054,0.708,1.027,1.412l0,0v0.722
	L74.9,265.53c-3.526,1.076-5.963,3.761-7.378,6.271l0,0c1.152-0.778,2.427-1.428,3.634-1.988l0,0c2.707-1.226,5.126-1.892,5.157-1.9
	l0,0l1.118-0.31l1.111,10.356l-1.961,0.211L75.722,270.157L75.722,270.157z"/>
<circle fill="#CCCCCC" cx="20.376" cy="202.805" r="3.944"/>
<path fill="#CCCCCC" d="M92.746,451.91c4.029,3.111,7.82,5.596,7.82,5.596c-1.314,3.287-3.105,8.875,2.958,15.447
	c-20.212-13.146-42.782-1.973-42.782-1.973l-4.072-7.102C82.71,462.035,90.468,455.812,92.746,451.91z"/>
<path fill="#FBB03B" d="M56.67,463.878l-7.044-12.287c0,0,13.812-3.615,34.696-7.561c1.668,2.367,5.125,5.332,8.424,7.879
	C90.468,455.812,82.71,462.035,56.67,463.878z"/>
<path fill="#FFFFFF" d="M48.628,451.171l0.831-0.219c0.011-0.002,13.835-3.621,34.741-7.568l0,0l0.415-0.078l0.244,0.346
	c1.575,2.244,5.013,5.213,8.289,7.736l0,0l0.457,0.354l-0.291,0.498c-2.488,4.219-10.484,10.438-36.597,12.295l0,0l-0.412,0.027
	L48.628,451.171L48.628,451.171z M56.671,463.878l0.569-0.326L56.671,463.878L56.671,463.878z M57.035,463.193
	c24.503-1.787,32.394-7.51,34.839-11.129l0,0c-3.021-2.361-6.1-5.014-7.836-7.311l0,0c-10.25,1.943-18.771,3.799-24.748,5.176l0,0
	c-4.32,0.996-7.304,1.738-8.664,2.082l0,0L57.035,463.193L57.035,463.193z"/>
<path fill="#FBB03B" d="M236.626,380.494c0.438,0.778,8.107,5.971,6.354,12.461c-1.752,6.49-8.326,6.49-11.174,4.934
	c0,0,10.298-8.188,0.657-18.053C234.873,380.274,236.626,380.494,236.626,380.494z"/>
<path fill="#FFFFFF" d="M235.519,399.4c-1.543-0.002-2.971-0.361-4.028-0.936l0,0l-0.87-0.475l0.775-0.617
	c0-0.002,0.266-0.211,0.694-0.633l0,0c0.428-0.422,1.001-1.045,1.572-1.832l0,0c1.146-1.572,2.265-3.783,2.264-6.359l0,0
	c-0.005-2.41-0.955-5.197-3.934-8.254l0,0l-1.438-1.474l2.026,0.368c2.393,0.435,4.123,0.651,4.128,0.651l0,0l-0.082,0.652
	l0.082-0.652l0.328,0.04l0.154,0.273c0,0.001,0.001,0.002,0.002,0.004l0,0c0.01,0.012,0.026,0.03,0.05,0.055l0,0
	c0.051,0.056,0.131,0.133,0.229,0.225l0,0c0.198,0.186,0.475,0.432,0.797,0.727l0,0c0.647,0.592,1.48,1.38,2.308,2.332l0,0
	c1.647,1.902,3.312,4.477,3.32,7.511l0,0c0,0.688-0.089,1.398-0.283,2.12l0,0c-1.228,4.62-4.897,6.274-8.008,6.274l0,0
	C235.577,399.401,235.547,399.401,235.519,399.4L235.519,399.4z M235.519,398.085c2.743-0.031,5.711-1.254,6.826-5.303l0,0
	c0.163-0.609,0.237-1.199,0.237-1.776l0,0c0.039-4.425-4.504-8.239-6.008-9.608l0,0c-0.115-0.112-0.209-0.197-0.294-0.287l0,0
	c-0.369-0.05-1.104-0.153-2.075-0.311l0,0c2.208,2.734,3.039,5.381,3.036,7.748l0,0c-0.026,4.469-2.837,7.761-4.243,9.14l0,0
	C233.722,397.931,234.601,398.087,235.519,398.085L235.519,398.085z"/>
<path fill="#FFFFFF" d="M36.964,337.689c0,0-12.506,17.605-15.647,31.736c8.657,2.758,6.441,1.286,6.441,1.286
	s6.806-26.545,10.593-32.138C42.137,332.98,36.964,337.689,36.964,337.689z"/>
<path fill="#FFFFFF" d="M19.719,414.453l-3.896,10.189c0,0-6.062,0-5.629-1.314c0.433-1.316,4.33-11.175,4.33-11.175L19.719,414.453
	z"/>
<path d="M38.78,395.72c0,0,25.306,8.873,33.96-23.443c-1.643,0-5.477,0.877-5.477,0.877s-0.781,2.727-2.301,6.572
	c-2.798,7.079-9.154,17.004-25.196,14.022C38.78,394.734,38.78,395.72,38.78,395.72z"/>
<ellipse cx="514.361" cy="605.398" rx="156.765" ry="13.475"/>
<path fill="#00FFFF" d="M505.487,273.135c60.986,0,110.426,83.968,110.426,187.546c0,53.77-13.326,102.244-34.669,136.441
	c-2.714-5.207-4.898-11.932-7.398-18.84c-5.258-14.604-17.089-39.969-26.948-16.91c-3.944,9.992-9.859,48.424-25.635,43.045
	c-11.831-3.844-8.545-40.738-28.264-37.664c-11.831,2.307-11.174,27.672-19.062,36.127c-17.09,20.752-20.376-17.68-26.949-29.979
	c-13.146-25.363-12.488,4.613-19.719,13.068c-0.791,1.021-1.64,1.885-2.539,2.605c-18.402-33.504-29.668-78.459-29.668-127.895
	C395.062,357.103,444.501,273.135,505.487,273.135z"/>
<path fill="#00FFFF" d="M464.79,333.162c-2.39-0.01-100.67,140.711-98.457,39.729c2.211-100.981,35.729-145.423-2.396-152.973
	c-38.123-7.549-5.029,9.428,1.099,20.676c6.129,11.248,2.456,37.218-14.827,100.63c-17.283,63.413,7.405,132.915,47.438,93.521
	C437.678,395.351,464.79,333.162,464.79,333.162z"/>
<path fill="#00FFFF" d="M563.324,367.463c2.656-0.198,98.339,126.153,105.571,30.104c7.232-96.051-25.738-135.76,17.34-145.957
	c43.077-10.196,4.684,8.587-3.205,19.789c-7.888,11.201-6.3,35.658,6.816,94.722c13.115,59.066-12.45,113.229-61.676,92.852
	C558.728,430.228,563.324,367.463,563.324,367.463z"/>
<circle cx="535.065" cy="392.105" r="17.09"/>
<circle cx="498.914" cy="363.184" r="17.089"/>
<circle cx="464.735" cy="389.476" r="17.09"/>
<ellipse fill="#FFFFFF" cx="496.614" cy="356.397" rx="6.244" ry="5.701"/>
<ellipse fill="#FFFFFF" cx="533.093" cy="386.189" rx="6.244" ry="5.701"/>
<ellipse fill="#FFFFFF" cx="462.106" cy="384.875" rx="6.244" ry="5.701"/>
<path fill="#FFFFFF" d="M546.897,480.183c-5.916,0.656-14.461-26.949-23.006-18.404s-12.488,22.348-26.949,17.09
	c-14.46-5.26-13.146-29.578-19.719-18.404c-6.572,11.174-12.488,28.264-21.69,18.404c-3.682-3.945-7.993-11.781-11.843-19.766
	c14.166-8.002,35.56-13.1,59.496-13.1c19.851,0,37.947,3.506,51.629,9.266C553.346,465.578,550.652,479.765,546.897,480.183z"/>
<path fill="#FFFFFF" d="M477.223,486.755c7.888-9.201,5.259,11.832,9.859,19.062c4.602,7.229,23.006,10.516,35.494-10.518
	c9.544-16.072,18.318,5.465,21.927,17.4c-11.948,3.549-26.12,5.605-41.317,5.605c-20.915,0-39.885-3.895-53.793-10.215
	C455.944,501.982,471.191,493.792,477.223,486.755z"/>
<path d="M425.955,482.154c0-8.76,6.659-16.793,17.735-23.051c3.85,7.984,8.161,15.82,11.843,19.766
	c9.202,9.859,15.118-7.23,21.69-18.404c6.573-11.174,5.259,13.145,19.719,18.404c14.461,5.258,18.404-8.545,26.949-17.09
	s17.09,19.061,23.006,18.404c3.755-0.418,6.449-14.605,7.918-24.914c15.717,6.619,25.604,16.211,25.604,26.885
	c0,12.854-14.329,24.137-35.915,30.547c-3.608-11.936-12.383-33.473-21.927-17.4c-12.488,21.033-30.893,17.746-35.494,10.518
	c-4.601-7.23,0.003-26.107-9.859-19.062c-9.202,6.572-21.279,15.227-27.83,21.336C434.939,501.521,425.955,492.33,425.955,482.154z"
	/>
<path fill="#00FFFF" d="M523.234,282.337c-2.645-0.677-22.915-3.388-9.695-25.75c13.221-22.361,0.882-37.269-29.085-39.979
	c9.695,6.099,34.373,20.329,19.391,35.236c-14.983,14.908-7.051,29.815,1.762,29.138"/>
<circle fill="#00FFFF" cx="487.74" cy="215.951" r="11.502"/>
<path fill="#FFFF00" d="M444.426,97.132C444.426,43.488,349.851,0,233.187,0S21.947,43.488,21.947,97.132
	c0,53.531,94.173,96.943,210.493,97.129c-4.352,13.259-15.439,30.551-42.147,47.579c41.054-21.506,74.713-35.717,91.59-50.173
	C375.07,181.556,444.426,143.07,444.426,97.132z"/>
<path fill="#FFFF00" d="M700.458,150.028c0-32.886-31.223-59.545-69.739-59.545s-69.739,26.66-69.739,59.545
	c0,27.81,22.329,51.163,52.514,57.711c-4.719,11.025-13.299,23.701-28.653,36.229c20.897-14.011,39.283-24.849,53.027-34.704
	C673.026,206.208,700.458,180.854,700.458,150.028z"/>
<path fill="#E2850A" d="M75.405,74.626h9.29c3.4,0,5.889,0.79,8.014,3.036c2.125,2.247,2.793,4.979,2.793,10.14
	c0,3.764-0.303,6.314-1.761,8.682c-1.7,2.793-4.432,4.493-8.986,4.493h-3.157v16.879h-6.193V74.626z M81.598,95.148h2.975
	c5.04,0,5.1-2.975,5.1-7.286c0-4.068,0-7.407-4.857-7.407h-3.218V95.148z"/>
<path fill="#E2850A" d="M104.741,74.626h5.161l9.653,43.229h-6.193l-1.821-9.29h-8.439l-1.821,9.29h-6.193L104.741,74.626z
	 M107.352,87.073h-0.122l-3.036,15.664h6.193L107.352,87.073z"/>
<path fill="#E2850A" d="M122.229,84.827c0-7.043,5.343-10.564,10.382-10.564c5.04,0,10.382,3.521,10.382,10.564v2.186h-6.193v-2.186
	c0-2.975-1.943-4.372-4.189-4.372s-4.189,1.396-4.189,4.372v22.829c0,2.975,1.942,4.372,4.189,4.372s4.189-1.396,4.189-4.372V99.52
	h-4.918v-5.464h11.111v13.6c0,7.043-5.343,10.564-10.382,10.564c-5.039,0-10.382-3.521-10.382-10.564V84.827z"/>
<path fill="#E2850A" d="M148.46,74.626h18.457v5.829h-12.264v12.689h10.686v5.829h-10.686v12.689h12.264v6.193H148.46V74.626z"/>
<path fill="#E2850A" d="M181.977,74.626h5.95l9.35,26.047h0.121V74.626h6.193v43.229h-5.828l-9.472-25.986h-0.122v25.986h-6.193
	V74.626z"/>
<path fill="#E2850A" d="M208.814,84.827c0-7.043,5.343-10.564,10.382-10.564c5.04,0,10.382,3.521,10.382,10.564v22.829
	c0,7.043-5.343,10.564-10.382,10.564c-5.039,0-10.382-3.521-10.382-10.564V84.827z M215.007,107.655
	c0,2.975,1.943,4.372,4.189,4.372c2.247,0,4.189-1.396,4.189-4.372V84.827c0-2.975-1.943-4.372-4.189-4.372
	c-2.246,0-4.189,1.396-4.189,4.372V107.655z"/>
<path fill="#E2850A" d="M238.387,80.455h-7.165v-5.829h20.521v5.829h-7.164v37.4h-6.193V80.455z"/>
<path fill="#E2850A" d="M265.771,74.626h18.457v5.829h-12.264V93.57h10.686v5.828h-10.686v18.458h-6.193V74.626z"/>
<path fill="#E2850A" d="M287.873,84.827c0-7.043,5.343-10.564,10.382-10.564c5.04,0,10.382,3.521,10.382,10.564v22.829
	c0,7.043-5.343,10.564-10.382,10.564c-5.039,0-10.382-3.521-10.382-10.564V84.827z M294.066,107.655
	c0,2.975,1.942,4.372,4.189,4.372s4.189-1.396,4.189-4.372V84.827c0-2.975-1.943-4.372-4.189-4.372s-4.189,1.396-4.189,4.372
	V107.655z"/>
<path fill="#E2850A" d="M334.14,108.141c0,5.646-4.493,10.079-10.018,10.079c-5.525,0-10.018-4.432-10.018-10.079V74.626h6.193
	v32.908c0,3.036,1.639,4.493,3.825,4.493c2.186,0,3.825-1.457,3.825-4.493V74.626h6.193V108.141z"/>
<path fill="#E2850A" d="M339.728,74.626h5.95l9.35,26.047h0.121V74.626h6.193v43.229h-5.829l-9.471-25.986h-0.122v25.986h-6.193
	V74.626z"/>
<path fill="#E2850A" d="M366.929,74.626h9.168c6.982,0,10.868,4.189,10.868,11.172v20.218c0,8.014-4.129,11.839-11.414,11.839
	h-8.622V74.626z M373.123,112.027h2.854c3.461,0,4.796-1.7,4.796-5.404V85.798c0-3.4-1.153-5.343-4.796-5.343h-2.854V112.027z"/>
<path fill="#E2850A" d="M393.282,74.626h7.771l-2.368,32.543h-3.036L393.282,74.626z M394.071,111.663h6.192v6.193h-6.192V111.663z"
	/>
<path fill="#E2850A" d="M623.819,165.607c0-11.875,1.759-16.538,8.356-21.728l4.75-3.695c2.991-2.375,4.223-4.398,4.223-8.093
	c0-5.366-3.871-9.853-9.412-9.853c-6.95,0-9.94,5.102-9.94,10.996h-8.445c0.704-10.82,7.302-18.385,18.562-18.385
	c10.907,0,17.681,8.269,17.681,17.593c0,4.926-1.231,8.709-6.773,13.02l-5.189,4.046c-4.574,3.606-5.894,5.278-5.894,16.098H623.819
	z M627.777,170.798c3.167,0,5.806,2.639,5.806,5.806s-2.639,5.806-5.806,5.806s-5.806-2.639-5.806-5.806
	S624.61,170.798,627.777,170.798z"/>
</svg>
